# xmcd
#
# Track frame offsets: 
#        150
#        8272
#        71937
#        104341
#        187648
#        196747
#        224959
#
# Disc length: 3843 seconds
#
# Revision: 1
# Processed by: cddbd v1.5.2PL0 Copyright (c) Steve Scherf et al.
# Submitted via: ExactAudioCopyFreeDBPlugin 1.0
#
DISCID=5b0f0107
DTITLE=Mahavishnu Orchestra - 1973 - Unreleased Tracks From Between No
DTITLE=thingness and Eternity Cd 2
DYEAR=1973
DGENRE=Jazz
TTITLE0=Hope
TTITLE1=Awakening
TTITLE2=You Know You Know
TTITLE3=One Word
TTITLE4=Stepping Tones
TTITLE5=Vital Transformation
TTITLE6=The Dance of Maya
EXTD=YEAR: 1973
EXTT0=
EXTT1=
EXTT2=
EXTT3=
EXTT4=
EXTT5=
EXTT6=
PLAYORDER=
